<?xml version="1.0" encoding="UTF-8"?>
<svg id="Vrstva_1" data-name="Vrstva 1" xmlns="http://www.w3.org/2000/svg" viewBox="0 0 1794.88 400">
  <defs></defs>
  <path class="cls-1" d="m61.23,270.85c-.4.81-1.21,2.02-1.61,2.82-.81.81-1.61,1.21-2.82,1.61-.81.4-2.02.81-3.23.81s-2.42-.4-3.23-.81c-.81-.4-2.02-1.21-2.82-1.61-.81-.81-1.21-1.61-1.61-2.82-.4-.81-.81-2.02-.81-3.23v-38.32c0-.81.4-1.61.81-2.02.81-.4,1.21-.81,2.02-.81s1.61.4,2.02.81c.4.4.81,1.21.81,2.02v38.32c0,.81.4,1.21.81,1.61.4.4.81.81,1.61.81s1.21-.4,1.61-.81c.4-.4.81-1.21.81-1.61v-35.09c0-1.21.4-2.42.81-3.23.4-.81,1.21-2.02,2.02-2.82s1.61-1.21,2.82-1.61c1.21-.4,2.02-.81,3.23-.81s2.42.4,3.23.81c1.21.4,2.02,1.21,2.82,1.61.81.81,1.21,1.61,1.61,2.82.4,1.21.81,2.02.81,3.23v38.32c0,.81-.4,1.61-.81,2.02s-1.21.81-2.02.81-1.61-.4-2.02-.81c-.4-.4-.81-1.21-.81-2.02v-38.32c0-.81-.4-1.21-.81-1.61-.4-.4-.81-.81-1.61-.81s-1.21.4-1.61.81c-.4.4-.81,1.21-.81,1.61v35.09c-.4.81-.81,2.02-1.21,3.23"></path>
  <path class="cls-1" d="m58.81,168.79c1.61,0,3.23.4,4.84.81,1.61.4,3.23,1.21,4.44,2.42,1.21,1.21,2.42,2.42,3.23,3.63.81,1.61,1.21,3.23,1.21,4.84v28.64c0,1.61-.4,3.23-1.61,4.44-.81,1.21-2.02,2.42-3.23,3.63-1.21.81-2.82,1.61-4.44,2.02-1.61.4-3.23.81-4.84.81s-3.23-.4-4.84-.81c-1.61-.4-3.23-1.21-4.44-2.42-1.21-1.21-2.42-2.42-3.23-3.63-.81-1.61-1.21-3.23-1.21-4.84v-28.64c0-1.61.4-3.23,1.21-4.44.81-1.21,2.02-2.42,3.23-3.63,1.21-.81,2.82-1.61,4.44-2.02,2.02-.4,3.63-.81,5.24-.81m6.86,9.28c-.4-.81-1.21-1.61-2.02-2.02s-1.61-.81-2.42-1.21c-.81,0-1.61-.4-2.42-.4s-1.61,0-2.42.4c-.81,0-1.61.4-2.42,1.21-.81.4-1.21,1.21-2.02,2.02-.4.81-.81,2.02-.81,3.63v25.41c0,1.61.4,2.82.81,3.63s1.21,1.61,2.02,2.02,1.61.81,2.42,1.21c.81,0,1.61.4,2.42.4s1.61,0,2.42-.4c.81,0,1.61-.4,2.42-1.21.81-.4,1.21-1.21,2.02-2.02.4-.81.81-2.02.81-3.63v-25.41c0-1.21-.4-2.42-.81-3.63"></path>
  <path class="cls-1" d="m53.97,163.55c-1.61-.4-3.23-1.21-4.44-2.42-1.21-1.21-2.42-2.42-3.23-3.63s-1.21-3.23-1.21-4.84v-36.3c0-.81.4-1.61.81-2.02.81-.4,1.21-.81,2.02-.81s1.61.4,2.02.81c.4.4.81,1.21.81,2.02v34.69c0,1.21.4,2.42.81,3.23.4.81,1.21,1.61,1.61,2.02.81.4,1.61.81,2.42,1.21.81.4,1.61.4,2.42.4h11.29c.81,0,1.61.4,2.02.81s.81,1.21.81,2.02-.4,1.61-.81,2.02-1.21.81-2.02.81h-10.49c-1.61.81-3.23.4-4.84,0m2.82-47.6c.4-.4,1.21-.81,2.02-.81s1.61.4,2.02.81c.4.4.81,1.21.81,2.02v32.67c0,.81-.4,1.61-.81,2.02-.4.4-1.21.81-2.02.81s-1.61-.4-2.02-.81-.81-1.21-.81-2.02v-32.67c-.4-.81,0-1.61.81-2.02"></path>
  <path class="cls-1" d="m45.1,61.89c0-.81.4-1.61.81-2.02.81-.4,1.21-.81,2.02-.81s1.61.4,2.02.81c.4.4.81,1.21.81,2.02v12.5c0,1.21.4,2.42.81,3.23.81.81,1.61,1.61,2.42,2.02s1.61.81,2.42.81,1.61.4,2.42.4h10.89c.81,0,1.61.4,2.02.81s.81,1.21.81,2.02-.4,1.61-.81,2.02c-.4.81-1.21,1.21-2.02,1.21h-10.89c-1.21,0-2.42,0-4.03-.4-1.21-.4-2.42-1.21-3.63-1.61v20.57c0,.81-.4,1.61-.81,2.02s-1.21.81-2.02.81-1.61-.4-2.02-.81c-.4-.4-.81-1.21-.81-2.02-.4,0-.4-43.57-.4-43.57Z"></path>
  <path class="cls-1" d="m56.39,305.13c0-1.61,0-3.23-.4-4.44,0-1.21-.4-2.82-1.21-4.44-.81-1.61-1.61-3.23-3.23-5.24-1.61-2.02-3.23-4.44-6.05-7.26-.4-.81-.81-1.61-.81-2.02,0-.81.4-1.61.81-2.42.81-.81,1.21-.81,2.42-.81.4,0,.81,0,1.21.4s.81.4,1.21.81c2.42,2.82,4.84,5.24,6.45,7.26,1.61,2.42,2.82,4.44,4.03,6.45.81,2.02,1.61,4.03,2.02,5.65.4,2.02.81,4.03.81,6.05,0,2.42,0,4.44-.4,6.45-1.21,1.61-1.61,3.63-2.82,5.65-.81,2.02-2.42,4.03-4.03,6.05-1.21,2.02-3.63,4.84-6.05,7.66-.4.4-.81.81-1.21.81-.4.4-.81.4-1.21.4-.81,0-1.61-.4-2.42-.81-.4-.81-.81-1.61-.81-2.42,0-.4,0-.81.4-1.21,0-.4.4-.81.81-1.21,2.42-2.82,4.44-5.24,6.05-7.26,1.61-2.02,2.42-3.63,3.23-5.24.81-1.61,1.21-2.82,1.21-4.44,0-1.21,0-2.82,0-4.44m14.12,4.03c-1.21,0-2.02-.4-2.82-1.21s-1.21-1.61-1.21-2.82.4-2.02,1.21-2.82c.81-.81,1.61-1.21,2.82-1.21s2.02.4,2.82,1.21c.81.81,1.21,1.61,1.21,2.82s-.4,2.02-1.21,2.82c-.4.81-1.61,1.21-2.82,1.21"></path>
  <path class="cls-1" d="m162.08,234.54v41.14c0,6.86,4.84,11.7,11.7,11.7h19.36c6.86,0,11.7-4.84,11.7-11.7v-31.46c0-8.07-3.23-12.91-8.47-15.73l-57.28-29.45c-17.35-8.87-27.83-26.62-27.83-48.41v-37.11c0-31.87,22.59-54.46,54.46-54.46h35.09c31.87,0,54.46,22.59,54.46,54.46v42.76h-50.42v-40.74c0-6.86-4.84-11.7-11.7-11.7h-19.36c-6.86,0-11.7,4.84-11.7,11.7v29.85c0,8.07,3.23,12.91,8.47,15.73l57.28,29.45c16.94,8.87,27.83,26.62,27.83,48.41v38.72c0,31.87-22.59,54.46-54.46,54.46h-35.5c-31.87,0-54.46-22.59-54.46-54.46v-43.16h50.83Z"></path>
  <path class="cls-1" d="m327.46,59.47h58.49l54.46,272.69h-51.23l-9.68-54.86h-47.6l-9.28,54.86h-49.62l54.46-272.69Zm12.1,173.05h32.67l-16.54-96.81-16.14,96.81Z"></path>
  <path class="cls-1" d="m463,59.47h112.95v44.37h-62.52v68.98h54.46v44.37h-54.46v114.96h-50.83V59.47h.4Z"></path>
  <path class="cls-1" d="m600.55,59.47h112.95v44.37h-62.52v68.98h54.46v44.37h-54.46v70.59h62.52v44.37h-112.95V59.47Z"></path>
  <path class="cls-1" d="m740.53,277.7V113.93c0-31.87,22.59-54.46,54.46-54.46h35.09c31.87,0,54.46,22.59,54.46,54.46v163.77c0,24.61-13.71,43.57-34.29,51.23l12.91,42.36h-54.46l-9.68-39.13h-4.03c-31.87,0-54.46-22.59-54.46-54.46h0Zm81.89,10.08c6.86,0,11.7-4.84,11.7-11.7V115.54c0-6.86-4.84-11.7-11.7-11.7h-19.36c-6.86,0-11.7,4.84-11.7,11.7v160.55c0,6.86,4.84,11.7,11.7,11.7h19.36Z"></path>
  <path class="cls-1" d="m1102.76,242.61v38.32c0,30.25-20.98,51.63-51.63,51.63h-33.48c-30.25,0-51.63-20.98-51.63-51.63V110.7c0-30.25,20.98-51.63,51.63-51.63h33.48c30.25,0,51.63,20.98,51.63,51.63v38.32h-35.09v-37.92c0-10.89-8.07-18.96-18.96-18.96h-28.24c-10.89,0-18.96,8.07-18.96,18.96v169.02c0,10.89,8.07,18.96,18.96,18.96h28.24c10.89,0,18.96-8.07,18.96-18.96v-37.92l35.09.4h0Z"></path>
  <path class="cls-1" d="m1136.65,59.47h33.08v272.69h-33.08V59.47Z"></path>
  <path class="cls-1" d="m1206.03,280.53v-95.6c0-30.25,20.98-51.63,51.63-51.63h27.83c30.25,0,51.63,20.98,51.63,51.63v96c0,30.25-20.98,51.63-51.63,51.63h-27.83c-30.66-.4-51.63-21.38-51.63-52.04Zm78.26,20.57c10.89,0,18.96-8.07,18.96-18.96v-98.83c0-10.89-8.07-18.96-18.96-18.96h-26.22c-10.89,0-18.96,8.07-18.96,18.96v98.83c0,10.89,8.07,18.96,18.96,18.96h26.22Z"></path>
  <path class="cls-1" d="m1502.51,133.29v198.87h-33.08v-18.96c-8.47,11.7-22.19,18.56-39.93,18.56h-6.05c-30.25,0-51.63-20.98-51.63-51.63v-146.83h33.08v148.85c0,10.89,8.07,18.96,18.96,18.96h16.94c15.73,0,27.43-10.89,28.64-26.22v-141.59h33.08Z"></path>
  <path class="cls-1" d="m1636.03,313.2c-8.47,11.7-22.19,18.56-39.93,18.56h-6.05c-30.25,0-51.63-20.98-51.63-51.63v-95.2c0-30.25,20.98-51.63,51.63-51.63h6.05c17.35,0,31.06,6.86,39.93,18.56V59.07h33.08v272.69h-33.08v-18.56h0Zm0-37.92v-85.11c-1.21-15.33-12.91-26.22-28.64-26.22h-16.94c-10.89,0-18.96,8.07-18.96,18.96v98.83c0,10.89,8.07,18.96,18.96,18.96h16.94c15.73.4,27.43-10.49,28.64-25.41h0Z"></path>
  <path class="cls-1" d="m1738.09,77.63c0-6.05-3.63-8.47-8.87-8.47h-11.7v26.22h5.65v-8.87h3.63l4.44,8.87h6.45l-4.84-9.28c3.23-1.21,5.24-4.03,5.24-8.47h0Zm-9.28,3.63h-5.65v-7.26h5.65c2.02,0,3.63,1.21,3.63,3.63,0,2.82-1.61,3.63-3.63,3.63Z"></path>
  <path class="cls-1" d="m1727.6,59.47c-13.71,0-22.59,8.87-22.59,22.59s8.87,22.59,22.59,22.59,22.59-8.87,22.59-22.59c0-13.71-8.87-22.59-22.59-22.59Zm0,40.74c-10.89,0-17.75-7.26-17.75-18.15s6.86-18.15,17.75-18.15,17.75,6.86,17.75,18.15-6.86,18.15-17.75,18.15Z"></path>
</svg>