<?xml version="1.0" encoding="UTF-8" standalone="no"?>
<!-- Created with Inkscape (http://www.inkscape.org/) -->
<svg xmlns:dc="http://purl.org/dc/elements/1.1/" xmlns:cc="http://web.resource.org/cc/" xmlns:rdf="http://www.w3.org/1999/02/22-rdf-syntax-ns#" xmlns:svg="http://www.w3.org/2000/svg" xmlns="http://www.w3.org/2000/svg" xmlns:sodipodi="http://sodipodi.sourceforge.net/DTD/sodipodi-0.dtd" xmlns:inkscape="http://www.inkscape.org/namespaces/inkscape" id="svg2" sodipodi:version="0.32" inkscape:version="0.44+devel" width="360" height="73" version="1.0" sodipodi:docbase="C:\Documents and Settings\Flanker\Desktop" sodipodi:docname="UTC-PW_Logo.svg" inkscape:output_extension="org.inkscape.output.svg.inkscape" sodipodi:modified="true">
  <metadata id="metadata7">
    <rdf:RDF>
      <cc:Work rdf:about="">
        <dc:format>image/svg+xml</dc:format>
        <dc:type rdf:resource="http://purl.org/dc/dcmitype/StillImage"/>
      </cc:Work>
    </rdf:RDF>
  </metadata>
  <defs id="defs5"/>
  <sodipodi:namedview inkscape:window-height="1003" inkscape:window-width="1280" inkscape:pageshadow="2" inkscape:pageopacity="0.0" guidetolerance="10.0" gridtolerance="10.0" objecttolerance="10.0" borderopacity="1.0" bordercolor="#666666" pagecolor="#ffffff" id="base" inkscape:zoom="3.0407125" inkscape:cx="194.58348" inkscape:cy="8.237164" inkscape:window-x="-4" inkscape:window-y="-4" inkscape:current-layer="svg2" width="360px" height="73px"/>
  <g id="g3090">
    <g transform="translate(0.641377)" id="g3062">
      <path id="path2033" style="font-size: 16.0057px; font-style: normal; font-weight: normal; fill: black; fill-opacity: 1; stroke: none; stroke-width: 1px; stroke-linecap: butt; stroke-linejoin: miter; stroke-opacity: 1; font-family: Bitstream Vera Sans;" d="M 95.225469,65.878927 L 99.692381,54.59337 L 101.35061,54.59337 L 106.11108,65.878927 L 104.35765,65.878927 L 103.00091,62.460927 L 98.137293,62.460927 L 96.859899,65.878927 L 95.225469,65.878927 z M 98.581605,61.244612 L 102.52486,61.244612 L 101.31094,58.119144 C 100.94068,57.169709 100.66563,56.389625 100.48579,55.778892 C 100.33769,56.502532 100.12875,57.221029 99.858998,57.934388 L 98.581605,61.244612 z "/>
      <path style="font-size: 16.0057px; font-style: normal; font-weight: normal; fill: black; fill-opacity: 1; stroke: none; stroke-width: 1px; stroke-linecap: butt; stroke-linejoin: miter; stroke-opacity: 1; font-family: Bitstream Vera Sans;" d="M 118.74595,54.59337 L 120.28518,54.59337 L 120.28518,61.113743 C 120.28517,62.247948 120.15293,63.148635 119.88847,63.81581 C 119.62398,64.482989 119.14661,65.025711 118.45636,65.443978 C 117.76608,65.862247 116.86027,66.071382 115.73893,66.071382 C 114.64929,66.071382 113.75803,65.889191 113.06512,65.52481 C 112.3722,65.160429 111.87764,64.633103 111.58144,63.94283 C 111.28523,63.252561 111.13713,62.309533 111.13713,61.113743 L 111.13713,54.59337 L 112.67635,54.59337 L 112.67635,61.106045 C 112.67635,62.086285 112.77023,62.808632 112.95801,63.273087 C 113.14578,63.737547 113.46843,64.095513 113.92598,64.346985 C 114.3835,64.598462 114.94286,64.724199 115.60404,64.724198 C 116.73597,64.724199 117.5426,64.47529 118.02395,63.977472 C 118.50528,63.479657 118.74594,62.522516 118.74595,61.106045 L 118.74595,54.59337 z " id="path2029"/>
      <path style="font-size: 16.0057px; font-style: normal; font-weight: normal; fill: black; fill-opacity: 1; stroke: none; stroke-width: 1px; stroke-linecap: butt; stroke-linejoin: miter; stroke-opacity: 1; font-family: Bitstream Vera Sans;" d="M 122.54834,65.878927 L 122.54834,57.703442 L 123.83367,57.703442 L 123.83367,58.865869 C 124.45253,57.967754 125.34644,57.518694 126.51541,57.518685 C 127.02319,57.518694 127.48998,57.607222 127.91578,57.784273 C 128.34157,57.961339 128.66026,58.193568 128.87184,58.48096 C 129.08341,58.768366 129.23152,59.109653 129.31616,59.50482 C 129.36904,59.761432 129.39549,60.210493 129.3955,60.852004 L 129.3955,65.878927 L 127.96735,65.878927 L 127.96735,60.905892 C 127.96734,60.341363 127.91181,59.919245 127.80074,59.639538 C 127.68965,59.359844 127.49262,59.136596 127.20964,58.969794 C 126.92665,58.803008 126.59474,58.71961 126.21392,58.719603 C 125.60562,58.71961 125.08065,58.906933 124.63898,59.281572 C 124.19732,59.656223 123.97649,60.367024 123.97649,61.413973 L 123.97649,65.878927 L 122.54834,65.878927 z " id="path2027"/>
      <path id="path2025" style="font-size: 16.0057px; font-style: normal; font-weight: normal; fill: black; fill-opacity: 1; stroke: none; stroke-width: 1px; stroke-linecap: butt; stroke-linejoin: miter; stroke-opacity: 1; font-family: Bitstream Vera Sans;" d="M 132.10118,56.186896 L 132.10118,54.59337 L 133.52932,54.59337 L 133.52932,56.186896 L 132.10118,56.186896 z M 132.10118,65.878927 L 132.10118,57.703442 L 133.52932,57.703442 L 133.52932,65.878927 L 132.10118,65.878927 z "/>
      <path style="font-size: 16.0057px; font-style: normal; font-weight: normal; fill: black; fill-opacity: 1; stroke: none; stroke-width: 1px; stroke-linecap: butt; stroke-linejoin: miter; stroke-opacity: 1; font-family: Bitstream Vera Sans;" d="M 139.20432,64.639517 L 139.41061,65.863531 C 139.0086,65.945644 138.64893,65.986702 138.33156,65.986702 C 137.8132,65.986702 137.41121,65.907153 137.12558,65.748057 C 136.83995,65.588961 136.63895,65.379828 136.52258,65.120654 C 136.40622,64.861483 136.34803,64.316194 136.34804,63.484787 L 136.34804,58.781189 L 135.30073,58.781189 L 135.30073,57.703442 L 136.34804,57.703442 L 136.34804,55.678816 L 137.76824,54.847411 L 137.76824,57.703442 L 139.20432,57.703442 L 139.20432,58.781189 L 137.76824,58.781189 L 137.76824,63.56177 C 137.76824,63.956946 137.79337,64.210985 137.84361,64.323891 C 137.89387,64.436799 137.97585,64.526611 138.08958,64.593328 C 138.20329,64.660047 138.36595,64.693406 138.57753,64.693405 C 138.7362,64.693406 138.94513,64.675443 139.20432,64.639517 L 139.20432,64.639517 z " id="path2021"/>
      <path id="path2019" style="font-size: 16.0057px; font-style: normal; font-weight: normal; fill: black; fill-opacity: 1; stroke: none; stroke-width: 1px; stroke-linecap: butt; stroke-linejoin: miter; stroke-opacity: 1; font-family: Bitstream Vera Sans;" d="M 146.3609,63.246144 L 147.83665,63.423202 C 147.6039,64.259741 147.17282,64.908955 146.54339,65.370845 C 145.91394,65.832737 145.10994,66.063683 144.1314,66.063684 C 142.89897,66.063683 141.92175,65.695453 141.19975,64.958992 C 140.47774,64.222533 140.11674,63.189693 140.11674,61.860468 C 140.11674,60.485063 140.48171,59.41758 141.21166,58.658018 C 141.94159,57.898471 142.88839,57.518694 144.05207,57.518685 C 145.1787,57.518694 146.09906,57.890772 146.81315,58.634923 C 147.5272,59.379089 147.88424,60.426043 147.88425,61.775787 C 147.88424,61.857906 147.88159,61.981076 147.87631,62.145301 L 141.59249,62.145301 C 141.64538,63.043427 141.90721,63.731132 142.37797,64.208418 C 142.84872,64.685707 143.43585,64.924352 144.13934,64.924351 C 144.66299,64.924352 145.10994,64.790916 145.48021,64.524044 C 145.85047,64.257175 146.14402,63.831208 146.3609,63.246144 L 146.3609,63.246144 z M 141.67183,61.005968 L 146.37677,61.005968 C 146.31329,60.318268 146.13345,59.802489 145.83725,59.45863 C 145.38235,58.924895 144.79258,58.658025 144.06793,58.658018 C 143.41205,58.658025 142.86063,58.871009 142.41367,59.296968 C 141.96672,59.722942 141.71943,60.292607 141.67183,61.005968 L 141.67183,61.005968 z "/>
      <path id="path2015" style="font-size: 16.0057px; font-style: normal; font-weight: normal; fill: black; fill-opacity: 1; stroke: none; stroke-width: 1px; stroke-linecap: butt; stroke-linejoin: miter; stroke-opacity: 1; font-family: Bitstream Vera Sans;" d="M 155.4793,65.878927 L 155.4793,64.847368 C 154.94507,65.658246 154.15959,66.063683 153.12287,66.063684 C 152.45111,66.063683 151.83357,65.884059 151.27025,65.52481 C 150.70693,65.165561 150.27055,64.663896 149.96112,64.019812 C 149.65169,63.375732 149.49697,62.635423 149.49697,61.798882 C 149.49697,60.982878 149.63714,60.242569 149.91748,59.577953 C 150.19782,58.913349 150.61833,58.403985 151.17901,58.049861 C 151.73968,57.695752 152.36648,57.518694 153.0594,57.518685 C 153.56718,57.518694 154.01942,57.622619 154.41613,57.830462 C 154.81284,58.038321 155.13549,58.30904 155.38409,58.642622 L 155.38409,54.59337 L 156.8043,54.59337 L 156.8043,65.878927 L 155.4793,65.878927 z M 150.96478,61.798882 C 150.96478,62.84584 151.19223,63.628489 151.64712,64.146832 C 152.10201,64.665179 152.63888,64.924352 153.25775,64.924351 C 153.88189,64.924352 154.41215,64.676727 154.84854,64.181474 C 155.28491,63.686226 155.5031,62.930521 155.50311,61.914355 C 155.5031,60.795556 155.28095,59.974415 154.83664,59.450932 C 154.39233,58.927462 153.84487,58.665724 153.19428,58.665716 C 152.55954,58.665724 152.02928,58.917197 151.60348,59.42014 C 151.17768,59.923094 150.96478,60.716007 150.96478,61.798882 L 150.96478,61.798882 z "/>
      <path style="font-size: 16.0057px; font-style: normal; font-weight: normal; fill: black; fill-opacity: 1; stroke: none; stroke-width: 1px; stroke-linecap: butt; stroke-linejoin: miter; stroke-opacity: 1; font-family: Bitstream Vera Sans;" d="M 166.33109,65.878927 L 166.33109,55.925158 L 162.49891,55.925158 L 162.49891,54.59337 L 171.71836,54.59337 L 171.71836,55.925158 L 167.87032,55.925158 L 167.87032,65.878927 L 166.33109,65.878927 z " id="path1932"/>
      <path id="path1930" style="font-size: 16.0057px; font-style: normal; font-weight: normal; fill: black; fill-opacity: 1; stroke: none; stroke-width: 1px; stroke-linecap: butt; stroke-linejoin: miter; stroke-opacity: 1; font-family: Bitstream Vera Sans;" d="M 176.51581,63.246144 L 177.99155,63.423202 C 177.75882,64.259741 177.32773,64.908955 176.69829,65.370845 C 176.06884,65.832737 175.26486,66.063683 174.28632,66.063684 C 173.05389,66.063683 172.07667,65.695453 171.35466,64.958992 C 170.63266,64.222533 170.27165,63.189693 170.27165,61.860468 C 170.27165,60.485063 170.63663,59.41758 171.36656,58.658018 C 172.09649,57.898471 173.04331,57.518694 174.20698,57.518685 C 175.33362,57.518694 176.25397,57.890772 176.96805,58.634923 C 177.68212,59.379089 178.03916,60.426043 178.03916,61.775787 C 178.03916,61.857906 178.03651,61.981076 178.03123,62.145301 L 171.7474,62.145301 C 171.80029,63.043427 172.06212,63.731132 172.53288,64.208418 C 173.00363,64.685707 173.59076,64.924352 174.29426,64.924351 C 174.8179,64.924352 175.26486,64.790916 175.63512,64.524044 C 176.00537,64.257175 176.29894,63.831208 176.51581,63.246144 L 176.51581,63.246144 z M 171.82674,61.005968 L 176.53167,61.005968 C 176.46819,60.318268 176.28836,59.802489 175.99215,59.45863 C 175.53726,58.924895 174.94749,58.658025 174.22285,58.658018 C 173.56695,58.658025 173.01553,58.871009 172.56858,59.296968 C 172.12162,59.722942 171.87435,60.292607 171.82674,61.005968 L 171.82674,61.005968 z "/>
      <path style="font-size: 16.0057px; font-style: normal; font-weight: normal; fill: black; fill-opacity: 1; stroke: none; stroke-width: 1px; stroke-linecap: butt; stroke-linejoin: miter; stroke-opacity: 1; font-family: Bitstream Vera Sans;" d="M 185.16595,62.884328 L 186.57029,63.061386 C 186.41689,64.000568 186.02416,64.735746 185.39208,65.26692 C 184.75998,65.798096 183.98376,66.063683 183.0634,66.063684 C 181.91031,66.063683 180.98334,65.698019 180.2825,64.966691 C 179.58165,64.235364 179.23123,63.187126 179.23123,61.821977 C 179.23123,60.939255 179.38198,60.166871 179.68347,59.50482 C 179.98497,58.842782 180.44382,58.346248 181.06004,58.015218 C 181.67625,57.684204 182.34669,57.518694 183.07134,57.518685 C 183.98641,57.518694 184.73486,57.743224 185.3167,58.192277 C 185.89852,58.641345 186.27143,59.279013 186.43541,60.105279 L 185.04694,60.31313 C 184.9147,59.763998 184.68064,59.350862 184.34477,59.073721 C 184.00889,58.796593 183.60293,58.658025 183.12688,58.658018 C 182.40752,58.658025 181.82303,58.908216 181.37344,59.408592 C 180.92383,59.908981 180.69904,60.700612 180.69904,61.783486 C 180.69904,62.881765 180.9159,63.67981 181.34964,64.177625 C 181.78337,64.675443 182.34934,64.924352 183.04754,64.924351 C 183.60822,64.924352 184.07633,64.757557 184.45188,64.423967 C 184.82742,64.090381 185.06544,63.577168 185.16595,62.884328 L 185.16595,62.884328 z " id="path1926"/>
      <path style="font-size: 16.0057px; font-style: normal; font-weight: normal; fill: black; fill-opacity: 1; stroke: none; stroke-width: 1px; stroke-linecap: butt; stroke-linejoin: miter; stroke-opacity: 1; font-family: Bitstream Vera Sans;" d="M 188.54215,65.878927 L 188.54215,54.59337 L 189.9703,54.59337 L 189.9703,58.642622 C 190.63676,57.893338 191.47777,57.518694 192.49334,57.518685 C 193.11749,57.518694 193.65965,57.638015 194.11984,57.876651 C 194.58001,58.115302 194.90927,58.445042 195.10763,58.865869 C 195.30598,59.286711 195.40516,59.897434 195.40517,60.698041 L 195.40517,65.878927 L 193.97703,65.878927 L 193.97703,60.698041 C 193.97702,60.005208 193.8223,59.500977 193.51287,59.185344 C 193.20344,58.869725 192.76574,58.711912 192.19978,58.711905 C 191.77662,58.711912 191.37859,58.818404 191.0057,59.031381 C 190.63279,59.244371 190.367,59.533053 190.20831,59.897427 C 190.04963,60.261815 189.97028,60.764763 189.9703,61.406274 L 189.9703,65.878927 L 188.54215,65.878927 z " id="path1924"/>
      <path style="font-size: 16.0057px; font-style: normal; font-weight: normal; fill: black; fill-opacity: 1; stroke: none; stroke-width: 1px; stroke-linecap: butt; stroke-linejoin: miter; stroke-opacity: 1; font-family: Bitstream Vera Sans;" d="M 197.71206,65.878927 L 197.71206,57.703442 L 198.99738,57.703442 L 198.99738,58.865869 C 199.61624,57.967754 200.51015,57.518694 201.67911,57.518685 C 202.18689,57.518694 202.65368,57.607222 203.07949,57.784273 C 203.50528,57.961339 203.82396,58.193568 204.03555,58.48096 C 204.24712,58.768366 204.39522,59.109653 204.47986,59.50482 C 204.53274,59.761432 204.5592,60.210493 204.5592,60.852004 L 204.5592,65.878927 L 203.13105,65.878927 L 203.13105,60.905892 C 203.13105,60.341363 203.07551,59.919245 202.96444,59.639538 C 202.85335,59.359844 202.65633,59.136596 202.37335,58.969794 C 202.09036,58.803008 201.75845,58.71961 201.37762,58.719603 C 200.76933,58.71961 200.24436,58.906933 199.80269,59.281572 C 199.36103,59.656223 199.14019,60.367024 199.14019,61.413973 L 199.14019,65.878927 L 197.71206,65.878927 z " id="path1922"/>
      <path id="path1920" style="font-size: 16.0057px; font-style: normal; font-weight: normal; fill: black; fill-opacity: 1; stroke: none; stroke-width: 1px; stroke-linecap: butt; stroke-linejoin: miter; stroke-opacity: 1; font-family: Bitstream Vera Sans;" d="M 206.47536,61.791184 C 206.47536,60.277211 206.90909,59.155841 207.77656,58.427072 C 208.5012,57.821489 209.38454,57.518694 210.42656,57.518685 C 211.58493,57.518694 212.53173,57.886924 213.26697,58.623376 C 214.00219,59.359844 214.36981,60.377288 214.36982,61.675711 C 214.36981,62.727801 214.20716,63.555357 213.88187,64.158379 C 213.55655,64.761407 213.08315,65.229713 212.46165,65.563301 C 211.84014,65.89689 211.16178,66.063683 210.42656,66.063684 C 209.24701,66.063683 208.29359,65.696736 207.5663,64.962841 C 206.839,64.228948 206.47536,63.17173 206.47536,61.791184 L 206.47536,61.791184 z M 207.94317,61.791184 C 207.94317,62.838142 208.17855,63.622074 208.64931,64.142984 C 209.12006,64.663896 209.71248,64.924352 210.42656,64.924351 C 211.13533,64.924352 211.7251,64.662613 212.19586,64.139134 C 212.66661,63.615659 212.902,62.817614 212.902,61.744995 C 212.902,60.73397 212.66529,59.968 212.1919,59.447083 C 211.71849,58.926179 211.13004,58.665724 210.42656,58.665716 C 209.71248,58.665724 209.12006,58.924895 208.64931,59.443234 C 208.17855,59.961586 207.94317,60.744234 207.94317,61.791184 L 207.94317,61.791184 z "/>
      <path style="font-size: 16.0057px; font-style: normal; font-weight: normal; fill: black; fill-opacity: 1; stroke: none; stroke-width: 1px; stroke-linecap: butt; stroke-linejoin: miter; stroke-opacity: 1; font-family: Bitstream Vera Sans;" d="M 216.39511,65.878927 L 216.39511,54.59337 L 217.82325,54.59337 L 217.82325,65.878927 L 216.39511,65.878927 z " id="path1916"/>
      <path id="path1914" style="font-size: 16.0057px; font-style: normal; font-weight: normal; fill: black; fill-opacity: 1; stroke: none; stroke-width: 1px; stroke-linecap: butt; stroke-linejoin: miter; stroke-opacity: 1; font-family: Bitstream Vera Sans;" d="M 219.63823,61.791184 C 219.63823,60.277211 220.07196,59.155841 220.93942,58.427072 C 221.66407,57.821489 222.5474,57.518694 223.58942,57.518685 C 224.7478,57.518694 225.6946,57.886924 226.42984,58.623376 C 227.16506,59.359844 227.53267,60.377288 227.53268,61.675711 C 227.53267,62.727801 227.37002,63.555357 227.04473,64.158379 C 226.71943,64.761407 226.24602,65.229713 225.62452,65.563301 C 225.00301,65.89689 224.32464,66.063683 223.58942,66.063684 C 222.40988,66.063683 221.45647,65.696736 220.72917,64.962841 C 220.00188,64.228948 219.63823,63.17173 219.63823,61.791184 L 219.63823,61.791184 z M 221.10604,61.791184 C 221.10604,62.838142 221.34141,63.622074 221.81217,64.142984 C 222.28294,64.663896 222.87534,64.924352 223.58942,64.924351 C 224.2982,64.924352 224.88797,64.662613 225.35873,64.139134 C 225.82948,63.615659 226.06486,62.817614 226.06487,61.744995 C 226.06486,60.73397 225.82815,59.968 225.35476,59.447083 C 224.88135,58.926179 224.29291,58.665724 223.58942,58.665716 C 222.87534,58.665724 222.28294,58.924895 221.81217,59.443234 C 221.34141,59.961586 221.10604,60.744234 221.10604,61.791184 L 221.10604,61.791184 z "/>
      <path id="path1910" style="font-size: 16.0057px; font-style: normal; font-weight: normal; fill: black; fill-opacity: 1; stroke: none; stroke-width: 1px; stroke-linecap: butt; stroke-linejoin: miter; stroke-opacity: 1; font-family: Bitstream Vera Sans;" d="M 229.45288,66.556368 L 230.84135,66.756521 C 230.89953,67.172222 231.06086,67.475018 231.32533,67.664909 C 231.67972,67.921513 232.1637,68.049816 232.77728,68.049818 C 233.43845,68.049816 233.94888,67.921513 234.30856,67.664909 C 234.66824,67.4083 234.91156,67.049052 235.03851,66.587161 C 235.11255,66.304894 235.14693,65.712132 235.14165,64.808878 C 234.51749,65.522244 233.73994,65.878927 232.80902,65.878927 C 231.65064,65.878927 230.75408,65.473489 230.11935,64.662611 C 229.48462,63.851737 229.16725,62.879199 229.16725,61.744995 C 229.16725,60.964916 229.31271,60.245135 229.60363,59.585651 C 229.89455,58.926179 230.31638,58.416815 230.86912,58.057559 C 231.42187,57.698318 232.07114,57.518694 232.81695,57.518685 C 233.81135,57.518694 234.63122,57.908735 235.27653,58.688811 L 235.27653,57.703442 L 236.59359,57.703442 L 236.59359,64.770386 C 236.59358,66.043155 236.46003,66.945126 236.19292,67.476303 C 235.9258,68.007476 235.50265,68.427028 234.92346,68.734958 C 234.34427,69.042883 233.63152,69.196846 232.78521,69.196849 C 231.78022,69.196846 230.96829,68.977448 230.34943,68.538654 C 229.73057,68.099854 229.43173,67.439093 229.45288,66.556368 L 229.45288,66.556368 z M 230.63506,61.644919 C 230.63506,62.717538 230.85457,63.500186 231.2936,63.992869 C 231.73261,64.485555 232.28272,64.731897 232.9439,64.731896 C 233.59977,64.731897 234.14988,64.486837 234.59419,63.996718 C 235.0385,63.506602 235.26066,62.738065 235.26067,61.691107 C 235.26066,60.690348 235.03189,59.935925 234.57436,59.427838 C 234.11682,58.919763 233.5654,58.665724 232.92009,58.665716 C 232.28536,58.665724 231.74584,58.915915 231.30154,59.41629 C 230.85722,59.916679 230.63506,60.659554 230.63506,61.644919 L 230.63506,61.644919 z "/>
      <path id="path1906" style="font-size: 16.0057px; font-style: normal; font-weight: normal; fill: black; fill-opacity: 1; stroke: none; stroke-width: 1px; stroke-linecap: butt; stroke-linejoin: miter; stroke-opacity: 1; font-family: Bitstream Vera Sans;" d="M 238.51755,56.186896 L 238.51755,54.59337 L 239.94568,54.59337 L 239.94568,56.186896 L 238.51755,56.186896 z M 238.51755,65.878927 L 238.51755,57.703442 L 239.94568,57.703442 L 239.94568,65.878927 L 238.51755,65.878927 z "/>
      <path id="path1902" style="font-size: 16.0057px; font-style: normal; font-weight: normal; fill: black; fill-opacity: 1; stroke: none; stroke-width: 1px; stroke-linecap: butt; stroke-linejoin: miter; stroke-opacity: 1; font-family: Bitstream Vera Sans;" d="M 248.39569,63.246144 L 249.87143,63.423202 C 249.63869,64.259741 249.2076,64.908955 248.57817,65.370845 C 247.94872,65.832737 247.14474,66.063683 246.1662,66.063684 C 244.93375,66.063683 243.95654,65.695453 243.23454,64.958992 C 242.51253,64.222533 242.15153,63.189693 242.15153,61.860468 C 242.15153,60.485063 242.51649,59.41758 243.24644,58.658018 C 243.97637,57.898471 244.92318,57.518694 246.08686,57.518685 C 247.2135,57.518694 248.13385,57.890772 248.84793,58.634923 C 249.562,59.379089 249.91903,60.426043 249.91904,61.775787 C 249.91903,61.857906 249.91639,61.981076 249.91111,62.145301 L 243.62727,62.145301 C 243.68017,63.043427 243.94199,63.731132 244.41275,64.208418 C 244.88351,64.685707 245.47064,64.924352 246.17413,64.924351 C 246.69778,64.924352 247.14474,64.790916 247.51499,64.524044 C 247.88525,64.257175 248.17881,63.831208 248.39569,63.246144 L 248.39569,63.246144 z M 243.70661,61.005968 L 248.41155,61.005968 C 248.34807,60.318268 248.16823,59.802489 247.87203,59.45863 C 247.41714,58.924895 246.82737,58.658025 246.10273,58.658018 C 245.44683,58.658025 244.89541,58.871009 244.44845,59.296968 C 244.0015,59.722942 243.75422,60.292607 243.70661,61.005968 L 243.70661,61.005968 z "/>
      <path style="font-size: 16.0057px; font-style: normal; font-weight: normal; fill: black; fill-opacity: 1; stroke: none; stroke-width: 1px; stroke-linecap: butt; stroke-linejoin: miter; stroke-opacity: 1; font-family: Bitstream Vera Sans;" d="M 251.22622,63.438599 L 252.63849,63.223049 C 252.71784,63.772189 252.93867,64.193024 253.301,64.485553 C 253.66331,64.778086 254.16978,64.924352 254.82038,64.924351 C 255.47626,64.924352 255.96289,64.794765 256.28025,64.535591 C 256.59762,64.27642 256.7563,63.972342 256.75631,63.623355 C 256.7563,63.310298 256.61613,63.063955 256.3358,62.884328 C 256.14009,62.76116 255.65346,62.604631 254.87592,62.414738 C 253.82861,62.158135 253.10264,61.93617 252.698,61.748844 C 252.29336,61.561526 251.98657,61.302353 251.77765,60.971327 C 251.56872,60.640309 251.46424,60.274645 251.46424,59.874333 C 251.46424,59.509958 251.5502,59.17252 251.7221,58.86202 C 251.89401,58.551533 252.12806,58.293644 252.42427,58.088351 C 252.64643,57.929264 252.94925,57.794544 253.33273,57.684196 C 253.71622,57.573864 254.12747,57.518694 254.56649,57.518685 C 255.22766,57.518694 255.80817,57.611072 256.30803,57.79582 C 256.80787,57.980584 257.17681,58.230775 257.41484,58.546394 C 257.65286,58.862027 257.81682,59.284145 257.90675,59.812748 L 256.51035,59.997504 C 256.44687,59.576676 256.26307,59.248219 255.95893,59.012135 C 255.65478,58.776064 255.22502,58.658025 254.66963,58.658018 C 254.01374,58.658025 253.54563,58.763234 253.26529,58.973644 C 252.98495,59.184068 252.84478,59.430411 252.84478,59.712671 C 252.84478,59.892301 252.90296,60.053964 253.01934,60.197657 C 253.1357,60.346495 253.31818,60.469666 253.56679,60.567171 C 253.7096,60.618497 254.13011,60.736536 254.82831,60.921288 C 255.83859,61.183031 256.5434,61.397297 256.94276,61.564087 C 257.3421,61.730885 257.6555,61.973379 257.88295,62.291567 C 258.11039,62.609763 258.22411,63.004936 258.22411,63.477089 C 258.22411,63.938983 258.08526,64.37393 257.80757,64.781934 C 257.52987,65.189939 257.1292,65.505565 256.60556,65.728812 C 256.0819,65.95206 255.48949,66.063683 254.82831,66.063684 C 253.7334,66.063683 252.89899,65.843002 252.3251,65.401638 C 251.7512,64.960276 251.3849,64.305931 251.22622,63.438599 L 251.22622,63.438599 z " id="path1898"/>
      <path style="font-size: 16.0057px; font-style: normal; font-weight: normal; fill: black; fill-opacity: 1; stroke: none; stroke-width: 1px; stroke-linecap: butt; stroke-linejoin: miter; stroke-opacity: 1; font-family: Bitstream Vera Sans;" d="M 272.91018,61.922053 L 274.4494,62.299266 C 274.12674,63.525847 273.54622,64.461177 272.70786,65.105258 C 271.86948,65.74934 270.84466,66.071382 269.63339,66.071382 C 268.3798,66.071382 267.36026,65.823757 266.57479,65.328505 C 265.7893,64.833256 265.1916,64.116041 264.78168,63.176859 C 264.37175,62.237683 264.16678,61.229221 264.16678,60.151468 C 264.16678,58.976217 264.39819,57.951075 264.86102,57.076038 C 265.32384,56.201019 265.98236,55.53641 266.83661,55.082205 C 267.69085,54.628023 268.63104,54.400927 269.65719,54.400915 C 270.82086,54.400927 271.79939,54.688325 272.59282,55.263113 C 273.38623,55.837921 273.93897,56.646232 274.25105,57.688045 L 272.73563,58.034464 C 272.46587,57.213331 272.07444,56.615439 271.56138,56.240784 C 271.0483,55.866148 270.403,55.678826 269.62546,55.678816 C 268.73154,55.678826 267.98441,55.886677 267.38406,56.302369 C 266.78372,56.718081 266.36188,57.2762 266.11857,57.976728 C 265.87526,58.677271 265.7536,59.399618 265.75361,60.14377 C 265.7536,61.103484 265.89774,61.941303 266.18602,62.657232 C 266.47428,63.373166 266.92256,63.90819 267.53085,64.262305 C 268.13912,64.616424 268.79766,64.793482 269.50645,64.793481 C 270.36861,64.793482 271.09856,64.552272 271.69626,64.069851 C 272.29395,63.587432 272.69859,62.871501 272.91018,61.922053 L 272.91018,61.922053 z " id="path1896"/>
      <path id="path1894" style="font-size: 16.0057px; font-style: normal; font-weight: normal; fill: black; fill-opacity: 1; stroke: none; stroke-width: 1px; stroke-linecap: butt; stroke-linejoin: miter; stroke-opacity: 1; font-family: Bitstream Vera Sans;" d="M 275.63953,61.791184 C 275.63953,60.277211 276.07326,59.155841 276.94072,58.427072 C 277.66537,57.821489 278.5487,57.518694 279.59072,57.518685 C 280.7491,57.518694 281.69591,57.886924 282.43114,58.623376 C 283.16636,59.359844 283.53397,60.377288 283.53398,61.675711 C 283.53397,62.727801 283.37132,63.555357 283.04603,64.158379 C 282.72073,64.761407 282.24733,65.229713 281.62583,65.563301 C 281.00432,65.89689 280.32594,66.063683 279.59072,66.063684 C 278.41118,66.063683 277.45776,65.696736 276.73047,64.962841 C 276.00318,64.228948 275.63953,63.17173 275.63953,61.791184 L 275.63953,61.791184 z M 277.10734,61.791184 C 277.10734,62.838142 277.34271,63.622074 277.81348,64.142984 C 278.28423,64.663896 278.87664,64.924352 279.59072,64.924351 C 280.2995,64.924352 280.88927,64.662613 281.36003,64.139134 C 281.83079,63.615659 282.06616,62.817614 282.06617,61.744995 C 282.06616,60.73397 281.82946,59.968 281.35607,59.447083 C 280.88265,58.926179 280.29421,58.665724 279.59072,58.665716 C 278.87664,58.665724 278.28423,58.924895 277.81348,59.443234 C 277.34271,59.961586 277.10734,60.744234 277.10734,61.791184 L 277.10734,61.791184 z "/>
      <path style="font-size: 16.0057px; font-style: normal; font-weight: normal; fill: black; fill-opacity: 1; stroke: none; stroke-width: 1px; stroke-linecap: butt; stroke-linejoin: miter; stroke-opacity: 1; font-family: Bitstream Vera Sans;" d="M 285.21602,65.878927 L 285.21602,57.703442 L 286.49341,57.703442 L 286.49341,58.850473 C 286.75788,58.450174 287.10962,58.128133 287.54865,57.884349 C 287.98767,57.640581 288.48752,57.518694 289.04819,57.518685 C 289.67234,57.518694 290.18409,57.64443 290.58345,57.895896 C 290.9828,58.147379 291.26445,58.498929 291.42844,58.950549 C 292.09489,57.995981 292.96236,57.518694 294.03083,57.518685 C 294.86654,57.518694 295.50921,57.743224 295.95882,58.192277 C 296.40841,58.641345 296.63321,59.332899 296.63322,60.266941 L 296.63322,65.878927 L 295.21301,65.878927 L 295.21301,60.728833 C 295.213,60.174569 295.16672,59.775546 295.07416,59.531763 C 294.98159,59.287993 294.81365,59.09169 294.57035,58.942851 C 294.32702,58.794027 294.04139,58.71961 293.71346,58.719603 C 293.12104,58.71961 292.62913,58.910782 292.23771,59.293119 C 291.84629,59.675469 291.65059,60.287475 291.65059,61.12914 L 291.65059,65.878927 L 290.22245,65.878927 L 290.22245,60.567171 C 290.22245,59.951321 290.10607,59.48943 289.87335,59.181495 C 289.64061,58.873575 289.25977,58.71961 288.73083,58.719603 C 288.32884,58.71961 287.95725,58.822253 287.61609,59.027531 C 287.27492,59.232823 287.02764,59.533053 286.87425,59.928221 C 286.72085,60.3234 286.64416,60.893066 286.64416,61.63722 L 286.64416,65.878927 L 285.21602,65.878927 z " id="path1890"/>
      <path id="path1888" style="font-size: 16.0057px; font-style: normal; font-weight: normal; fill: black; fill-opacity: 1; stroke: none; stroke-width: 1px; stroke-linecap: butt; stroke-linejoin: miter; stroke-opacity: 1; font-family: Bitstream Vera Sans;" d="M 298.7675,69.012093 L 298.7675,57.703442 L 300.06869,57.703442 L 300.06869,58.765793 C 300.37548,58.350098 300.72194,58.038321 301.10806,57.830462 C 301.49419,57.622619 301.9623,57.518694 302.51241,57.518685 C 303.23177,57.518694 303.8665,57.698318 304.4166,58.057559 C 304.96669,58.416815 305.38191,58.923613 305.66226,59.577953 C 305.94259,60.232304 306.08276,60.949519 306.08277,61.729599 C 306.08276,62.566139 305.92804,63.319278 305.61861,63.989019 C 305.30918,64.658764 304.85958,65.171977 304.26982,65.528659 C 303.68004,65.885342 303.05986,66.063683 302.40927,66.063684 C 301.93321,66.063683 301.5061,65.966173 301.1279,65.771152 C 300.74971,65.576132 300.43895,65.329789 300.19565,65.032125 L 300.19565,69.012093 L 298.7675,69.012093 z M 300.06076,61.837373 C 300.06076,62.889463 300.28027,63.666981 300.7193,64.169927 C 301.15832,64.672877 301.6899,64.924352 302.31405,64.924351 C 302.94878,64.924352 303.49227,64.663896 303.94451,64.142984 C 304.39676,63.622074 304.62288,62.815048 304.62289,61.7219 C 304.62288,60.680083 304.40205,59.9 303.96038,59.381648 C 303.51872,58.86331 302.99109,58.604138 302.37753,58.60413 C 301.76924,58.604138 301.23105,58.879989 300.76293,59.431687 C 300.29482,59.983397 300.06076,60.785292 300.06076,61.837373 L 300.06076,61.837373 z "/>
      <path id="path1884" style="font-size: 16.0057px; font-style: normal; font-weight: normal; fill: black; fill-opacity: 1; stroke: none; stroke-width: 1px; stroke-linecap: butt; stroke-linejoin: miter; stroke-opacity: 1; font-family: Bitstream Vera Sans;" d="M 313.31075,64.870463 C 312.78181,65.306695 312.2727,65.614622 311.78343,65.794246 C 311.29415,65.973871 310.76918,66.063683 310.20851,66.063684 C 309.28286,66.063683 308.57144,65.844285 308.07423,65.405488 C 307.57702,64.966692 307.32843,64.406007 307.32843,63.723432 C 307.32843,63.323128 307.42231,62.957464 307.61009,62.626439 C 307.79786,62.29542 308.04381,62.029832 308.34796,61.829675 C 308.65209,61.629526 308.99459,61.478128 309.37543,61.375481 C 309.65576,61.303636 310.07892,61.234353 310.64489,61.16763 C 311.79797,61.034199 312.64693,60.875104 313.19174,60.690342 C 313.19702,60.500458 313.19967,60.379854 313.19968,60.328527 C 313.19967,59.763998 313.06479,59.366258 312.79504,59.135306 C 312.43006,58.822253 311.8879,58.665724 311.16854,58.665716 C 310.49678,58.665724 310.0009,58.779913 309.68089,59.008286 C 309.36088,59.236673 309.12418,59.640828 308.97079,60.220752 L 307.57438,60.035995 C 307.70132,59.456071 307.91026,58.987764 308.20118,58.631075 C 308.49209,58.274399 308.9126,57.99983 309.4627,57.807367 C 310.0128,57.61492 310.65018,57.518694 311.37482,57.518685 C 312.09418,57.518694 312.67866,57.600807 313.12827,57.765027 C 313.57786,57.929264 313.90845,58.135831 314.12004,58.384732 C 314.3316,58.633648 314.4797,58.94799 314.56434,59.327762 C 314.61194,59.563845 314.63574,59.989812 314.63575,60.605662 L 314.63575,62.453229 C 314.63574,63.741396 314.66616,64.556122 314.727,64.897406 C 314.78781,65.238694 314.90815,65.565867 315.088,65.878927 L 313.59638,65.878927 C 313.44827,65.591527 313.35306,65.255374 313.31075,64.870463 L 313.31075,64.870463 z M 313.19174,61.775787 C 312.67337,61.981076 311.89583,62.155569 310.85911,62.299266 C 310.27198,62.381383 309.85676,62.473761 309.61345,62.5764 C 309.37013,62.679046 309.18236,62.829161 309.05013,63.026745 C 308.91789,63.224334 308.85178,63.443733 308.85178,63.68494 C 308.85178,64.054456 308.9959,64.362383 309.28418,64.608725 C 309.57245,64.855067 309.99428,64.978238 310.54968,64.978238 C 311.09977,64.978238 311.58904,64.861483 312.01749,64.62797 C 312.44593,64.394459 312.76065,64.074985 312.96165,63.669545 C 313.11504,63.356486 313.19173,62.894596 313.19174,62.283869 L 313.19174,61.775787 z "/>
      <path style="font-size: 16.0057px; font-style: normal; font-weight: normal; fill: black; fill-opacity: 1; stroke: none; stroke-width: 1px; stroke-linecap: butt; stroke-linejoin: miter; stroke-opacity: 1; font-family: Bitstream Vera Sans;" d="M 316.85729,65.878927 L 316.85729,57.703442 L 318.14261,57.703442 L 318.14261,58.865869 C 318.76147,57.967754 319.65539,57.518694 320.82436,57.518685 C 321.33213,57.518694 321.79893,57.607222 322.22473,57.784273 C 322.65051,57.961339 322.96921,58.193568 323.18079,58.48096 C 323.39236,58.768366 323.54047,59.109653 323.6251,59.50482 C 323.67799,59.761432 323.70443,60.210493 323.70444,60.852004 L 323.70444,65.878927 L 322.2763,65.878927 L 322.2763,60.905892 C 322.27629,60.341363 322.22076,59.919245 322.10968,59.639538 C 321.9986,59.359844 321.80157,59.136596 321.51859,58.969794 C 321.2356,58.803008 320.90369,58.71961 320.52286,58.719603 C 319.91457,58.71961 319.38959,58.906933 318.94793,59.281572 C 318.50626,59.656223 318.28543,60.367024 318.28543,61.413973 L 318.28543,65.878927 L 316.85729,65.878927 z " id="path1880"/>
      <path style="font-size: 16.0057px; font-style: normal; font-weight: normal; fill: black; fill-opacity: 1; stroke: none; stroke-width: 1px; stroke-linecap: butt; stroke-linejoin: miter; stroke-opacity: 1; font-family: Bitstream Vera Sans;" d="M 325.83872,69.027489 L 325.68004,67.726494 C 325.99211,67.808606 326.26452,67.849663 326.49726,67.849665 C 326.81461,67.849663 327.06851,67.798342 327.25893,67.695702 C 327.44934,67.593057 327.60539,67.449358 327.72704,67.264603 C 327.81696,67.126034 327.96242,66.782181 328.16342,66.233043 C 328.18986,66.156062 328.23218,66.043155 328.29037,65.894324 L 325.09291,57.703442 L 326.63213,57.703442 L 328.38558,62.437832 C 328.61301,63.038294 328.81666,63.669547 328.99651,64.331589 C 329.16047,63.695207 329.35618,63.07422 329.58363,62.468626 L 331.38467,57.703442 L 332.81282,57.703442 L 329.60743,66.017494 C 329.26361,66.915616 328.9965,67.534037 328.80609,67.87276 C 328.55219,68.329517 328.26127,68.664388 327.93333,68.877375 C 327.60539,69.090355 327.21396,69.196846 326.75908,69.196849 C 326.48403,69.196846 326.17724,69.140393 325.83872,69.027489 L 325.83872,69.027489 z " id="text1873"/>
    </g>
    <path id="rect2048" d="M 95.866846,48.131918 L 357.18385,48.131918 L 357.18385,49.381918 L 95.866846,49.381918 L 95.866846,48.131918 z " style="fill: black; fill-opacity: 1; fill-rule: nonzero; stroke: none; stroke-width: 10; stroke-linecap: round; stroke-linejoin: round; stroke-miterlimit: 4; stroke-opacity: 1;"/>
    <g transform="translate(3.2416, 0.631918)" style="fill: rgb(37, 70, 139); fill-opacity: 1;" id="g1953">
      <path id="path1935" style="font-size: 12.4091px; font-style: normal; font-weight: normal; fill: rgb(37, 70, 139); fill-opacity: 1; stroke: none; stroke-width: 1px; stroke-linecap: butt; stroke-linejoin: miter; stroke-opacity: 1; font-family: Bitstream Vera Sans;" d="M 92.625099,6.8429411 L 103.95664,6.8429411 C 105.39098,6.8429701 106.63613,7.0730791 107.69209,7.5332688 C 108.74801,7.9935152 109.62115,8.6229067 110.31149,9.4214453 C 111.0018,10.220037 111.50953,11.160922 111.83468,12.244105 C 112.15978,13.327335 112.32235,14.505146 112.32237,15.777542 C 112.32235,18.755346 111.51015,21.002317 109.88577,22.518462 C 108.26136,24.034633 105.90573,24.792712 102.8189,24.792701 L 100.17904,24.792701 L 100.17904,35.839184 L 92.625099,35.839184 L 92.625099,6.8429411 z M 100.17904,19.350638 L 101.6006,19.350638 C 102.54829,19.350655 103.27249,19.066427 103.77321,18.497953 C 104.2739,17.929515 104.52425,17.035932 104.52427,15.817201 C 104.52425,13.462425 103.5497,12.285027 101.6006,12.285004 L 100.17904,12.285004 L 100.17904,19.350638 z "/>
      <path style="font-size: 12.4091px; font-style: normal; font-weight: normal; fill: rgb(37, 70, 139); fill-opacity: 1; stroke: none; stroke-width: 1px; stroke-linecap: butt; stroke-linejoin: miter; stroke-opacity: 1; font-family: Bitstream Vera Sans;" d="M 113.26486,13.868916 L 120.3305,13.868916 L 120.3305,17.361453 L 120.41229,17.361453 C 120.81797,16.034524 121.46761,15.025886 122.3612,14.335538 C 123.25477,13.645232 124.24317,13.300068 125.32639,13.300046 L 126.50379,13.300046 L 126.50379,20.122764 C 126.17906,20.068248 125.86777,20.027555 125.56992,20.000686 C 125.27205,19.973849 124.97439,19.960423 124.67696,19.960407 C 123.37726,19.960423 122.36863,20.244651 121.65104,20.813092 C 120.93344,21.381563 120.57464,22.396604 120.57465,23.858218 L 120.57465,35.839184 L 113.26486,35.839184 L 113.26486,13.868916 z " id="path1931"/>
      <path id="path1929" style="font-size: 12.4091px; font-style: normal; font-weight: normal; fill: rgb(37, 70, 139); fill-opacity: 1; stroke: none; stroke-width: 1px; stroke-linecap: butt; stroke-linejoin: miter; stroke-opacity: 1; font-family: Bitstream Vera Sans;" d="M 137.72886,35.839184 C 137.59334,35.459938 137.49853,35.067265 137.44443,34.661165 C 137.39029,34.255067 137.33597,33.821909 137.28145,33.361688 L 137.20089,33.361688 C 136.79437,34.336659 136.14432,35.088128 135.25075,35.616098 C 134.35715,36.144068 133.35554,36.408053 132.2459,36.408054 C 131.13542,36.408053 130.19453,36.245489 129.42324,35.920362 C 128.65194,35.595235 128.02254,35.148444 127.53506,34.579986 C 127.04758,34.011532 126.6956,33.334838 126.47912,32.549902 C 126.26264,31.764974 126.15441,30.898657 126.15441,29.950949 C 126.15441,28.94872 126.25583,28.061747 126.45867,27.290027 C 126.66151,26.518323 126.99304,25.855056 127.45326,25.300222 C 127.91348,24.74541 128.53626,24.271765 129.32161,23.879287 C 130.10695,23.486833 131.08171,23.155096 132.2459,22.884075 L 135.12867,22.193747 C 135.91442,22.004551 136.46965,21.72714 136.79438,21.361512 C 137.11908,20.995913 137.28144,20.47476 137.28145,19.79805 C 137.28144,18.443852 136.65886,17.766745 135.41372,17.766727 C 134.70975,17.766745 134.19521,17.963184 133.87009,18.356046 C 133.54495,18.748942 133.36917,19.527471 133.34274,20.691634 L 127.00709,20.691634 C 127.00709,19.120959 127.29132,17.848336 127.85978,16.873762 C 128.42823,15.899226 129.13219,15.147964 129.97166,14.619972 C 130.81112,14.092024 131.71813,13.740044 132.69269,13.564031 C 133.66724,13.388063 134.57425,13.300068 135.41372,13.300046 C 136.68613,13.300068 137.85712,13.40149 138.92671,13.604311 C 139.99627,13.807176 140.91671,14.172582 141.68802,14.700531 C 142.4593,15.228522 143.05482,15.946116 143.47457,16.853313 C 143.89428,17.760548 144.10415,18.931336 144.10417,20.36568 L 144.10417,31.087449 C 144.10415,32.116127 144.14484,33.023137 144.22624,33.80848 C 144.30761,34.593827 144.49703,35.270728 144.79449,35.839184 L 137.72886,35.839184 z M 135.00721,31.493961 C 135.8194,31.493966 136.40149,31.196105 136.75348,30.600377 C 137.10545,30.00466 137.28144,29.097444 137.28145,27.878726 L 137.28145,25.240113 L 137.20089,25.240113 C 136.9844,25.537571 136.65267,25.720171 136.20568,25.787913 C 135.75867,25.855675 135.26458,26.011422 134.72339,26.255155 C 134.15493,26.525346 133.76226,26.883936 133.54538,27.330926 C 133.32848,27.777932 133.22003,28.367044 133.22004,29.098264 C 133.22003,29.82867 133.3826,30.410553 133.70773,30.843913 C 134.03285,31.277283 134.46601,31.493966 135.00721,31.493961 L 135.00721,31.493961 z "/>
      <path style="font-size: 12.4091px; font-style: normal; font-weight: normal; fill: rgb(37, 70, 139); fill-opacity: 1; stroke: none; stroke-width: 1px; stroke-linecap: butt; stroke-linejoin: miter; stroke-opacity: 1; font-family: Bitstream Vera Sans;" d="M 145.04295,13.868916 L 147.47955,13.868916 L 147.47955,7.4105715 L 154.78934,7.4105715 L 154.78934,13.868916 L 157.67211,13.868916 L 157.67211,18.781769 L 154.78934,18.781769 L 154.78934,29.260621 C 154.78933,29.882789 154.93144,30.322558 155.21568,30.579928 C 155.4999,30.837308 155.93987,30.965996 156.53561,30.965991 L 157.67211,30.965991 L 157.67211,35.839184 C 156.9954,35.920156 156.31871,35.981091 155.64202,36.021991 C 154.96532,36.062889 154.31548,36.083339 153.6925,36.083339 C 152.58284,36.083339 151.63535,36.022403 150.85001,35.900533 C 150.06466,35.778661 149.42163,35.514676 148.92093,35.108577 C 148.42023,34.702478 148.05482,34.133816 147.82471,33.402587 C 147.5946,32.671364 147.47955,31.696809 147.47955,30.478919 L 147.47955,18.781769 L 145.04295,18.781769 L 145.04295,13.868916 z " id="path1925"/>
      <path style="font-size: 12.4091px; font-style: normal; font-weight: normal; fill: rgb(37, 70, 139); fill-opacity: 1; stroke: none; stroke-width: 1px; stroke-linecap: butt; stroke-linejoin: miter; stroke-opacity: 1; font-family: Bitstream Vera Sans;" d="M 158.97613,13.868916 L 161.41273,13.868916 L 161.41273,7.4105715 L 168.72252,7.4105715 L 168.72252,13.868916 L 171.60529,13.868916 L 171.60529,18.781769 L 168.72252,18.781769 L 168.72252,29.260621 C 168.72251,29.882789 168.86462,30.322558 169.14886,30.579928 C 169.43308,30.837308 169.87305,30.965996 170.46879,30.965991 L 171.60529,30.965991 L 171.60529,35.839184 C 170.92858,35.920156 170.25188,35.981091 169.5752,36.021991 C 168.8985,36.062889 168.24866,36.083339 167.62568,36.083339 C 166.51602,36.083339 165.56853,36.022403 164.78319,35.900533 C 163.99784,35.778661 163.35481,35.514676 162.85411,35.108577 C 162.3534,34.702478 161.988,34.133816 161.75789,33.402587 C 161.52778,32.671364 161.41272,31.696809 161.41273,30.478919 L 161.41273,18.781769 L 158.97613,18.781769 L 158.97613,13.868916 z " id="path1923"/>
      <path id="path1921" style="font-size: 12.4091px; font-style: normal; font-weight: normal; fill: rgb(37, 70, 139); fill-opacity: 1; stroke: none; stroke-width: 1px; stroke-linecap: butt; stroke-linejoin: miter; stroke-opacity: 1; font-family: Bitstream Vera Sans;" d="M 206.39289,35.839184 L 198.35187,35.839184 L 197.09267,34.133814 C 196.55147,34.45853 196.0237,34.756184 195.50938,35.026778 C 194.99503,35.297374 194.46024,35.5343 193.90502,35.737556 C 193.34977,35.940812 192.76087,36.103375 192.1383,36.225247 C 191.51572,36.347117 190.82518,36.408053 190.0667,36.408054 C 188.84881,36.408053 187.70508,36.238879 186.63551,35.900533 C 185.56593,35.562185 184.62505,35.054458 183.81285,34.37735 C 183.00065,33.700244 182.35763,32.847354 181.88378,31.818676 C 181.40992,30.790006 181.173,29.598561 181.173,28.24434 C 181.173,26.566245 181.61297,24.996175 182.49292,23.534123 C 183.37287,22.072097 184.74692,20.83996 186.61506,19.83771 C 185.88383,18.836318 185.24081,17.766951 184.68599,16.629607 C 184.13116,15.492301 183.85375,14.368815 183.85375,13.259147 C 183.85375,12.257761 184.04998,11.344142 184.44245,10.518286 C 184.83491,9.6924798 185.38994,8.9817032 186.10754,8.3859537 C 186.82513,7.7902591 187.68484,7.3300411 188.68666,7.0052983 C 189.68848,6.6806131 190.81196,6.5182562 192.05712,6.5182268 C 193.30226,6.5182562 194.43938,6.6806131 195.46848,7.0052983 C 196.49756,7.3300411 197.3709,7.7902591 198.08851,8.3859537 C 198.80608,8.9817032 199.36111,9.6924798 199.7536,10.518286 C 200.14604,11.344142 200.34228,12.257761 200.3423,13.259147 C 200.34228,14.66709 199.9023,16.000441 199.02237,17.259206 C 198.1424,18.518007 196.90386,19.662149 195.30675,20.691634 L 198.59603,25.117415 C 198.89346,24.629942 199.11675,24.095155 199.26591,23.513054 C 199.41502,22.930977 199.51645,22.328852 199.57017,21.706676 L 205.90582,21.706676 C 205.82482,23.331086 205.52717,24.901363 205.01285,26.417512 C 204.49849,27.933679 203.65923,29.260214 202.49508,30.397121 L 206.39289,35.839184 z M 189.94524,12.772075 C 189.94523,13.20505 190.09416,13.692328 190.39203,14.233909 C 190.68989,14.775534 191.17716,15.479288 191.85387,16.345172 C 192.74785,15.532993 193.37084,14.842666 193.72283,14.274189 C 194.0748,13.705754 194.25079,13.20505 194.2508,12.772075 C 194.25079,12.176376 194.04774,11.688892 193.64166,11.309622 C 193.23554,10.9304 192.721,10.740777 192.09802,10.740752 C 191.47502,10.740777 190.96048,10.9304 190.55439,11.309622 C 190.14828,11.688892 189.94523,12.176376 189.94524,12.772075 L 189.94524,12.772075 z M 190.02704,24.508886 C 189.43131,24.969115 188.98452,25.463209 188.68666,25.991169 C 188.3888,26.519149 188.23986,26.99961 188.23987,27.432554 C 188.23986,27.89278 188.32786,28.325939 188.50386,28.732031 C 188.67984,29.138137 188.91677,29.490117 189.21463,29.787972 C 189.51249,30.085839 189.84422,30.315948 190.20985,30.4783 C 190.57545,30.640662 190.9611,30.72184 191.3668,30.721835 C 191.79974,30.72184 192.25314,30.620419 192.727,30.417571 C 193.20084,30.214733 193.5869,29.991441 193.88519,29.747692 L 190.02704,24.508886 z "/>
      <path style="font-size: 12.4091px; font-style: normal; font-weight: normal; fill: rgb(37, 70, 139); fill-opacity: 1; stroke: none; stroke-width: 1px; stroke-linecap: butt; stroke-linejoin: miter; stroke-opacity: 1; font-family: Bitstream Vera Sans;" d="M 227.53527,6.8429411 L 234.35799,6.8429411 L 237.32256,26.904583 L 237.40436,26.904583 L 239.43444,6.8429411 L 246.74547,6.8429411 L 241.79048,35.839184 L 233.50531,35.839184 L 230.98815,16.345172 L 230.90635,16.345172 L 228.38796,35.839184 L 220.10402,35.839184 L 215.14903,6.8429411 L 222.45882,6.8429411 L 224.73306,26.904583 L 224.81486,26.904583 L 227.53527,6.8429411 z " id="path1915"/>
      <path style="font-size: 12.4091px; font-style: normal; font-weight: normal; fill: rgb(37, 70, 139); fill-opacity: 1; stroke: none; stroke-width: 1px; stroke-linecap: butt; stroke-linejoin: miter; stroke-opacity: 1; font-family: Bitstream Vera Sans;" d="M 249.57594,6.8429411 L 256.88572,6.8429411 L 256.88572,16.305512 L 256.96628,16.305512 C 257.58926,15.141354 258.36779,14.349399 259.30187,13.929645 C 260.23593,13.509935 261.14955,13.300068 262.04273,13.300046 C 262.80121,13.300068 263.52562,13.39488 264.21596,13.584481 C 264.90628,13.774126 265.51542,14.099047 266.04341,14.559243 C 266.57136,15.019483 266.9911,15.635241 267.30261,16.406521 C 267.61408,17.177839 267.76983,18.132358 267.76985,19.270079 L 267.76985,35.839184 L 260.45882,35.839184 L 260.45882,21.341062 C 260.45881,20.420641 260.32351,19.757373 260.05293,19.351258 C 259.78232,18.945175 259.32231,18.742126 258.67289,18.742109 C 258.02263,18.742126 257.5622,18.945175 257.29162,19.351258 C 257.02101,19.757373 256.88572,20.420641 256.88572,21.341062 L 256.88572,35.839184 L 249.57594,35.839184 L 249.57594,6.8429411 z " id="path1913"/>
      <path id="path1911" style="font-size: 12.4091px; font-style: normal; font-weight: normal; fill: rgb(37, 70, 139); fill-opacity: 1; stroke: none; stroke-width: 1px; stroke-linecap: butt; stroke-linejoin: miter; stroke-opacity: 1; font-family: Bitstream Vera Sans;" d="M 271.37776,13.868916 L 278.68755,13.868916 L 278.68755,35.839184 L 271.37776,35.839184 L 271.37776,13.868916 z M 271.37776,6.8429411 L 278.68755,6.8429411 L 278.68755,12.285004 L 271.37776,12.285004 L 271.37776,6.8429411 z "/>
      <path style="font-size: 12.4091px; font-style: normal; font-weight: normal; fill: rgb(37, 70, 139); fill-opacity: 1; stroke: none; stroke-width: 1px; stroke-linecap: butt; stroke-linejoin: miter; stroke-opacity: 1; font-family: Bitstream Vera Sans;" d="M 280.92718,13.868916 L 283.36377,13.868916 L 283.36377,7.4105715 L 290.67356,7.4105715 L 290.67356,13.868916 L 293.55633,13.868916 L 293.55633,18.781769 L 290.67356,18.781769 L 290.67356,29.260621 C 290.67355,29.882789 290.81567,30.322558 291.09991,30.579928 C 291.38412,30.837308 291.8241,30.965996 292.41983,30.965991 L 293.55633,30.965991 L 293.55633,35.839184 C 292.87963,35.920156 292.20293,35.981091 291.52625,36.021991 C 290.84954,36.062889 290.1997,36.083339 289.57672,36.083339 C 288.46707,36.083339 287.51957,36.022403 286.73423,35.900533 C 285.94888,35.778661 285.30586,35.514676 284.80516,35.108577 C 284.30445,34.702478 283.93904,34.133816 283.70894,33.402587 C 283.47883,32.671364 283.36377,31.696809 283.36377,30.478919 L 283.36377,18.781769 L 280.92718,18.781769 L 280.92718,13.868916 z " id="path1907"/>
      <path style="font-size: 12.4091px; font-style: normal; font-weight: normal; fill: rgb(37, 70, 139); fill-opacity: 1; stroke: none; stroke-width: 1px; stroke-linecap: butt; stroke-linejoin: miter; stroke-opacity: 1; font-family: Bitstream Vera Sans;" d="M 296.35729,13.868916 L 303.42292,13.868916 L 303.42292,16.548428 L 303.50472,16.548428 C 303.96493,15.465241 304.64844,14.653043 305.55526,14.111832 C 306.46205,13.570663 307.55166,13.300068 308.82409,13.300046 C 309.63627,13.300068 310.38774,13.388063 311.0785,13.564031 C 311.76922,13.740044 312.37176,14.058148 312.88612,14.518344 C 313.40043,14.978584 313.80653,15.594549 314.10441,16.366241 C 314.40226,17.137973 314.55119,18.105918 314.55121,19.270079 L 314.55121,35.839184 L 307.24018,35.839184 L 307.24018,21.341062 C 307.24016,20.420641 307.10487,19.757373 306.83428,19.351258 C 306.56368,18.945175 306.10367,18.742126 305.45425,18.742109 C 304.80398,18.742126 304.34356,18.945175 304.07297,19.351258 C 303.80237,19.757373 303.66707,20.420641 303.66708,21.341062 L 303.66708,35.839184 L 296.35729,35.839184 L 296.35729,13.868916 z " id="path1905"/>
      <path id="path1903" style="font-size: 12.4091px; font-style: normal; font-weight: normal; fill: rgb(37, 70, 139); fill-opacity: 1; stroke: none; stroke-width: 1px; stroke-linecap: butt; stroke-linejoin: miter; stroke-opacity: 1; font-family: Bitstream Vera Sans;" d="M 323.88411,26.092798 L 323.88411,28.975566 C 323.8841,29.571295 323.93822,30.058779 324.04647,30.43802 C 324.1547,30.817272 324.30342,31.121949 324.49264,31.352054 C 324.68184,31.582167 324.89832,31.737708 325.14207,31.818676 C 325.3858,31.899651 325.62954,31.940137 325.8733,31.940134 C 326.198,31.940137 326.48904,31.879202 326.74643,31.757327 C 327.00379,31.63546 327.22048,31.43241 327.39648,31.148178 C 327.57246,30.863954 327.70775,30.478305 327.80237,29.991228 C 327.89696,29.504163 327.94427,28.881381 327.94428,28.122882 L 334.52408,28.122882 C 334.46953,30.830492 333.7792,32.87462 332.4531,34.255272 C 331.0716,35.69046 328.89197,36.408053 325.91419,36.408054 C 324.15428,36.408053 322.67861,36.198187 321.48717,35.778455 C 320.29572,35.358723 319.3346,34.688639 318.60378,33.768201 C 317.87297,32.847767 317.35182,31.656529 317.04032,30.194484 C 316.72883,28.732451 316.57308,26.959124 316.57308,24.874499 C 316.57308,22.76263 316.74907,20.97567 317.10105,19.513615 C 317.45303,18.051592 318.00806,16.860355 318.76614,15.939899 C 319.52422,15.019483 320.49216,14.349399 321.66998,13.929645 C 322.84779,13.509935 324.26252,13.300068 325.91419,13.300046 C 327.37581,13.300068 328.65504,13.476058 329.7519,13.828017 C 330.84872,14.180019 331.76936,14.768924 332.51383,15.594735 C 333.25826,16.420586 333.81329,17.510196 334.17892,18.863567 C 334.54451,20.216972 334.72732,21.881854 334.72734,23.858218 L 334.72734,26.092798 L 323.88411,26.092798 z M 327.90462,21.137806 C 327.90461,19.973643 327.76249,19.120752 327.47828,18.579132 C 327.19404,18.037546 326.65904,17.766745 325.8733,17.766727 C 325.11562,17.766745 324.59467,18.037546 324.31045,18.579132 C 324.02622,19.120752 323.8841,19.973643 323.88411,21.137806 L 323.88411,22.111949 L 327.90462,22.111949 L 327.90462,21.137806 z "/>
      <path style="font-size: 12.4091px; font-style: normal; font-weight: normal; fill: rgb(37, 70, 139); fill-opacity: 1; stroke: none; stroke-width: 1px; stroke-linecap: butt; stroke-linejoin: miter; stroke-opacity: 1; font-family: Bitstream Vera Sans;" d="M 336.72261,37.706911 C 336.99362,37.761441 337.26442,37.802133 337.53502,37.828988 C 337.80561,37.855839 338.07641,37.869266 338.34742,37.869268 C 338.80764,37.869266 339.19349,37.80172 339.50499,37.666631 C 339.81648,37.531538 340.06704,37.375998 340.25667,37.200009 C 340.44629,37.024018 340.58158,36.841211 340.66256,36.651589 C 340.74353,36.461965 340.78401,36.313035 340.78402,36.204797 C 340.78401,36.042027 340.75014,35.805101 340.68239,35.49402 C 340.61463,35.182939 340.54027,34.878262 340.45931,34.579986 L 334.65163,13.868916 L 342.20558,13.868916 L 344.43892,28.691751 L 344.52071,28.691751 L 346.6326,13.868916 L 353.94239,13.868916 L 348.05415,36.570411 C 347.7286,37.842826 347.35617,38.89195 346.93686,39.717784 C 346.51753,40.543612 346.01683,41.200063 345.43475,41.687139 C 344.85265,42.174205 344.18256,42.512552 343.42449,42.702181 C 342.66641,42.891798 341.79988,42.986609 340.82492,42.986616 C 340.03998,42.986609 339.31578,42.973183 338.65231,42.946337 C 337.98883,42.919477 337.3456,42.878784 336.72261,42.824259 L 336.72261,37.706911 z " id="text2936"/>
    </g>
    <rect y="33.288376" x="53.006508" height="6.5999999" width="20.5" id="rect1968" style="fill: rgb(37, 70, 139); fill-opacity: 1; fill-rule: nonzero; stroke: none; stroke-width: 10; stroke-linecap: round; stroke-linejoin: round; stroke-miterlimit: 4; stroke-dasharray: none; stroke-opacity: 1;"/>
    <rect transform="matrix(0, 1, -1, 0, 0, 0)" style="fill: rgb(37, 70, 139); fill-opacity: 1; fill-rule: nonzero; stroke: none; stroke-width: 10; stroke-linecap: round; stroke-linejoin: round; stroke-miterlimit: 4; stroke-dasharray: none; stroke-opacity: 1;" id="rect2882" width="20.5" height="6" x="51.353897" y="-41.30661"/>
    <rect transform="matrix(0.965926, 0.258819, -0.258819, 0.965926, 0, 0)" style="fill: rgb(37, 70, 139); fill-opacity: 1; fill-rule: nonzero; stroke: none; stroke-width: 10; stroke-linecap: round; stroke-linejoin: round; stroke-miterlimit: 4; stroke-dasharray: none; stroke-opacity: 1;" id="rect2884" width="20.500008" height="6.5000019" x="61.1507" y="22.410456"/>
    <rect transform="matrix(0.866025, 0.5, -0.5, 0.866025, 0, 0)" style="fill: rgb(37, 70, 139); fill-opacity: 1; fill-rule: nonzero; stroke: none; stroke-width: 10; stroke-linecap: round; stroke-linejoin: round; stroke-miterlimit: 4; stroke-dasharray: none; stroke-opacity: 1;" id="rect2886" width="20.499985" height="6.3999953" x="66.109665" y="9.8128958"/>
    <rect transform="matrix(0.707107, 0.707107, -0.707107, 0.707107, 0, 0)" style="fill: rgb(37, 70, 139); fill-opacity: 1; fill-rule: nonzero; stroke: none; stroke-width: 10; stroke-linecap: round; stroke-linejoin: round; stroke-miterlimit: 4; stroke-dasharray: none; stroke-opacity: 1;" id="rect2888" width="20.500011" height="6.300004" x="67.610046" y="-4.6354809"/>
    <rect transform="matrix(0.5, 0.866025, -0.866025, 0.5, 0, 0)" style="fill: rgb(37, 70, 139); fill-opacity: 1; fill-rule: nonzero; stroke: none; stroke-width: 10; stroke-linecap: round; stroke-linejoin: round; stroke-miterlimit: 4; stroke-dasharray: none; stroke-opacity: 1;" id="rect2890" width="20.499985" height="6.199995" x="65.494911" y="-18.045074"/>
    <rect transform="matrix(0.258819, 0.965926, -0.965926, 0.258819, 0, 0)" style="fill: rgb(37, 70, 139); fill-opacity: 1; fill-rule: nonzero; stroke: none; stroke-width: 10; stroke-linecap: round; stroke-linejoin: round; stroke-miterlimit: 4; stroke-dasharray: none; stroke-opacity: 1;" id="rect2892" width="20.500008" height="6.1000018" x="59.944065" y="-30.589943"/>
    <rect y="-49.459545" x="40.222244" height="5.900002" width="20.500008" id="rect2894" style="fill: rgb(37, 70, 139); fill-opacity: 1; fill-rule: nonzero; stroke: none; stroke-width: 10; stroke-linecap: round; stroke-linejoin: round; stroke-miterlimit: 4; stroke-dasharray: none; stroke-opacity: 1;" transform="matrix(-0.258819, 0.965926, -0.965926, -0.258819, 0, 0)"/>
    <rect y="-54.517323" x="27.390566" height="5.7999964" width="20.499985" id="rect2896" style="fill: rgb(37, 70, 139); fill-opacity: 1; fill-rule: nonzero; stroke: none; stroke-width: 10; stroke-linecap: round; stroke-linejoin: round; stroke-miterlimit: 4; stroke-dasharray: none; stroke-opacity: 1;" transform="matrix(-0.5, 0.866025, -0.866025, -0.5, 0, 0)"/>
    <rect y="-55.879025" x="13.56489" height="5.7000036" width="20.500011" id="rect2898" style="fill: rgb(37, 70, 139); fill-opacity: 1; fill-rule: nonzero; stroke: none; stroke-width: 10; stroke-linecap: round; stroke-linejoin: round; stroke-miterlimit: 4; stroke-dasharray: none; stroke-opacity: 1;" transform="matrix(-0.707107, 0.707107, -0.707107, -0.707107, 0, 0)"/>
    <rect y="-53.53656" x="0.080687419" height="5.5999961" width="20.499985" id="rect2900" style="fill: rgb(37, 70, 139); fill-opacity: 1; fill-rule: nonzero; stroke: none; stroke-width: 10; stroke-linecap: round; stroke-linejoin: round; stroke-miterlimit: 4; stroke-dasharray: none; stroke-opacity: 1;" transform="matrix(-0.866025, 0.5, -0.5, -0.866025, 0, 0)"/>
    <rect y="-48.058796" x="-12.530866" height="5.5000019" width="20.500008" id="rect2902" style="fill: rgb(37, 70, 139); fill-opacity: 1; fill-rule: nonzero; stroke: none; stroke-width: 10; stroke-linecap: round; stroke-linejoin: round; stroke-miterlimit: 4; stroke-dasharray: none; stroke-opacity: 1;" transform="matrix(-0.965926, 0.258819, -0.258819, -0.965926, 0, 0)"/>
    <rect y="-39.305161" x="-23.31601" height="5.4000001" width="20.5" id="rect2904" style="fill: rgb(37, 70, 139); fill-opacity: 1; fill-rule: nonzero; stroke: none; stroke-width: 10; stroke-linecap: round; stroke-linejoin: round; stroke-miterlimit: 4; stroke-dasharray: none; stroke-opacity: 1;" transform="scale(-1, -1)"/>
    <rect transform="matrix(-0.965926, -0.258819, 0.258819, -0.965926, 0, 0)" style="fill: rgb(37, 70, 139); fill-opacity: 1; fill-rule: nonzero; stroke: none; stroke-width: 10; stroke-linecap: round; stroke-linejoin: round; stroke-miterlimit: 4; stroke-dasharray: none; stroke-opacity: 1;" id="rect2906" width="20.500008" height="5.3000021" x="-31.394567" y="-27.71006"/>
    <rect transform="matrix(-0.866025, -0.5, 0.5, -0.866025, 0, 0)" style="fill: rgb(37, 70, 139); fill-opacity: 1; fill-rule: nonzero; stroke: none; stroke-width: 10; stroke-linecap: round; stroke-linejoin: round; stroke-miterlimit: 4; stroke-dasharray: none; stroke-opacity: 1;" id="rect2908" width="20.499985" height="5.199996" x="-36.450985" y="-15.221875"/>
    <rect transform="matrix(-0.707107, -0.707107, 0.707107, -0.707107, 0, 0)" style="fill: rgb(37, 70, 139); fill-opacity: 1; fill-rule: nonzero; stroke: none; stroke-width: 10; stroke-linecap: round; stroke-linejoin: round; stroke-miterlimit: 4; stroke-dasharray: none; stroke-opacity: 1;" id="rect2910" width="20.500011" height="5.1000028" x="-38.07933" y="-0.96624768"/>
    <rect transform="matrix(-0.5, -0.866025, 0.866025, -0.5, 0, 0)" style="fill: rgb(37, 70, 139); fill-opacity: 1; fill-rule: nonzero; stroke: none; stroke-width: 10; stroke-linecap: round; stroke-linejoin: round; stroke-miterlimit: 4; stroke-dasharray: none; stroke-opacity: 1;" id="rect2912" width="20.499985" height="4.9999962" x="-35.885288" y="12.823971"/>
    <rect y="25.445953" x="-30.30031" height="4.900002" width="20.500008" id="rect2916" style="fill: rgb(37, 70, 139); fill-opacity: 1; fill-rule: nonzero; stroke: none; stroke-width: 10; stroke-linecap: round; stroke-linejoin: round; stroke-miterlimit: 4; stroke-dasharray: none; stroke-opacity: 1;" transform="matrix(-0.258819, -0.965926, 0.965926, -0.258819, 0, 0)"/>
    <rect y="35.839157" x="-21.646105" height="4.8000002" width="20.5" id="rect2918" style="fill: rgb(37, 70, 139); fill-opacity: 1; fill-rule: nonzero; stroke: none; stroke-width: 10; stroke-linecap: round; stroke-linejoin: round; stroke-miterlimit: 4; stroke-dasharray: none; stroke-opacity: 1;" transform="matrix(0, -1, 1, 0, 0, 0)"/>
    <rect transform="matrix(0.258819, -0.965926, 0.965926, 0.258819, 0, 0)" style="fill: rgb(37, 70, 139); fill-opacity: 1; fill-rule: nonzero; stroke: none; stroke-width: 10; stroke-linecap: round; stroke-linejoin: round; stroke-miterlimit: 4; stroke-dasharray: none; stroke-opacity: 1;" id="rect2920" width="20.500008" height="4.7000017" x="-10.544387" y="44.126583"/>
    <rect transform="matrix(0.5, -0.866025, 0.866025, 0.5, 0, 0)" style="fill: rgb(37, 70, 139); fill-opacity: 1; fill-rule: nonzero; stroke: none; stroke-width: 10; stroke-linecap: round; stroke-linejoin: round; stroke-miterlimit: 4; stroke-dasharray: none; stroke-opacity: 1;" id="rect2922" width="20.499985" height="4.599997" x="2.2875645" y="49.068001"/>
    <rect transform="matrix(0.707107, -0.707107, 0.707107, 0.707107, 0, 0)" style="fill: rgb(37, 70, 139); fill-opacity: 1; fill-rule: nonzero; stroke: none; stroke-width: 10; stroke-linecap: round; stroke-linejoin: round; stroke-miterlimit: 4; stroke-dasharray: none; stroke-opacity: 1;" id="rect2924" width="20.500011" height="4.5000029" x="15.98332" y="50.870369"/>
    <rect transform="matrix(0.866025, -0.5, 0.5, 0.866025, 0, 0)" style="fill: rgb(37, 70, 139); fill-opacity: 1; fill-rule: nonzero; stroke: none; stroke-width: 10; stroke-linecap: round; stroke-linejoin: round; stroke-miterlimit: 4; stroke-dasharray: none; stroke-opacity: 1;" id="rect2926" width="20.499985" height="4.3999972" x="29.631239" y="48.753189"/>
    <rect transform="matrix(0.965926, -0.258819, 0.258819, 0.965926, 0, 0)" style="fill: rgb(37, 70, 139); fill-opacity: 1; fill-rule: nonzero; stroke: none; stroke-width: 10; stroke-linecap: round; stroke-linejoin: round; stroke-miterlimit: 4; stroke-dasharray: none; stroke-opacity: 1;" id="rect2928" width="20.500008" height="4.3000011" x="42.224464" y="42.908409"/>
  </g>
</svg>