<?xml version="1.0" encoding="UTF-8"?>
<svg id="a" data-name="Layer 1" xmlns="http://www.w3.org/2000/svg" viewBox="0 0 332.1769 185.9334"><defs></defs>
  <path d="m166.4864,71.8954c10.7513,0,20.2482-.478,28.524-1.4451,8.2503-.9633,17.064-3.6506,26.4352-8.0512,9.3694-4.4113,20.0437-11.0174,32.0272-19.8399,11.9762-8.819,26.9268-21.0532,44.82-36.7607,4.6802-3.8572,9.3631-5.7985,14.0586-5.7985,5.5061,0,10.1825,1.9413,14.046,5.7985,3.8409,3.8607,5.7794,8.5364,5.7794,14.0269,0,3.0496-.7695,5.9433-2.2799,8.6887-1.5111,2.7598-3.3682,5.0957-5.5665,7.0333-17.3699,15.4106-32.8421,28.1627-46.4815,38.2023-13.6414,10.0613-26.515,18.0544-38.6395,23.9651-12.104,5.9179-23.9597,10.1228-35.5257,12.6002-11.5688,2.4735-23.9742,3.7231-37.1972,3.7231-14.0379,0-26.9196-1.1771-38.6214-3.5095-11.691-2.3396-23.4907-6.5517-35.3294-12.5965-11.8412-6.0628-24.5038-14.1211-38.012-24.1824-13.4883-10.0396-29.0528-22.7916-46.6835-38.2023-2.1948-1.9376-4.0601-4.2735-5.563-7.0333-1.523-2.7453-2.2771-5.639-2.2771-8.6887,0-5.4905,1.9185-10.1662,5.7794-14.0269C9.6275,1.9413,14.3231,0,19.829,0c2.7491,0,5.2244.5506,7.4437,1.6587,2.1966,1.112,4.395,2.4774,6.6114,4.1398,17.609,15.4105,32.4238,27.5469,44.4026,36.355,11.969,8.8046,22.703,15.4179,32.2174,19.8292,9.5179,4.404,18.5306,7.1566,27.0626,8.2613,8.5401,1.0937,18.1847,1.6515,28.9197,1.6515m-25.6121,88.407c0-7.1494,2.4791-13.2086,7.4309-18.1812,4.9681-4.9509,11.0292-7.4283,18.1812-7.4283,7.1711,0,13.2231,2.4774,18.1994,7.4283,4.9518,4.9726,7.429,11.0318,7.429,18.1812,0,7.1711-2.4772,13.2301-7.429,18.1884-4.9763,4.9654-11.0283,7.4426-18.1994,7.4426-7.152,0-13.2131-2.4772-18.1812-7.4426-4.9518-4.9583-7.4309-11.0174-7.4309-18.1884" fill="#f60" stroke-width="0"></path>
</svg>