<?xml version="1.0" encoding="UTF-8"?><svg id="Vrstva_1" xmlns="http://www.w3.org/2000/svg" viewBox="0 0 915.23 167.63"><defs></defs><path class="cls-1" d="m363.56,82.02c-2.31-2.33-4.99-4.13-8.07-5.49-3.22-1.36-6.58-2.02-10.16-2.02h-106.15c-1.95,0-3.63-.7-5.12-2.11-1.45-1.43-2.18-3.11-2.18-4.99,0-2.09.73-3.72,2.18-5.08,1.5-1.36,3.17-2.04,5.12-2.04h116.9c2.58,0,4.76-.89,6.58-2.68,1.72-1.81,2.63-3.99,2.63-6.53s-.9-4.72-2.63-6.58c-1.81-1.74-3.99-2.65-6.58-2.65h-116.49c-3.58,0-6.98.68-10.02,2-3.04,1.36-5.76,3.2-8.03,5.49-2.36,2.29-4.17,5.03-5.49,8.09-1.36,3.06-2.04,6.39-2.04,9.98s.68,6.91,2.04,9.97c1.32,3.08,3.13,5.78,5.49,8.07,2.27,2.31,4.99,4.15,8.03,5.47,3.04,1.38,6.44,2.06,10.02,2.06h106.47c1.9,0,3.63.66,5.03,2.09,1.41,1.43,2.13,3.13,2.13,5.19,0,1.95-.73,3.53-2.13,4.94-1.41,1.29-3.13,2-5.03,2h-117.08c-2.54,0-4.71.89-6.53,2.67-1.76,1.79-2.67,3.99-2.67,6.55s.91,4.76,2.67,6.55c1.82,1.77,3.99,2.67,6.53,2.67h116.35c3.58,0,6.94-.65,10.16-1.92,3.08-1.27,5.76-3.06,8.07-5.36,2.36-2.36,4.13-5.03,5.48-8.1,1.32-3.08,2.04-6.44,2.04-10.02s-.73-6.94-2.04-10.07c-1.36-3.18-3.13-5.9-5.48-8.19Z"></path><path class="cls-1" d="m530.65,56.09c-2.86-3.99-6.39-7.28-10.48-9.91-4.08-2.63-8.75-4.06-14.01-4.31h-87.56c-5.49,0-10.38,1.29-14.78,3.83-4.31,2.56-8.07,5.85-11.16,9.91-3.04,4.03-5.4,8.5-6.98,13.42-1.59,4.94-2.4,9.82-2.4,14.69s.77,9.57,2.31,14.44c1.54,4.85,3.76,9.29,6.62,13.26,2.9,3.99,6.39,7.3,10.47,9.89,4.13,2.63,8.75,4.1,14.01,4.35h87.51c5.53,0,10.48-1.32,14.78-3.88,4.35-2.52,8.07-5.85,11.15-9.88,3.08-4.03,5.44-8.48,7.03-13.49,1.58-4.9,2.31-9.79,2.31-14.69s-.63-9.52-2.27-14.42c-1.5-4.83-3.72-9.23-6.57-13.21Zm-9.8,35.23c-.59,2.79-1.68,5.33-3.22,7.62-1.63,2.31-3.85,4.26-6.71,5.87-2.81,1.57-6.35,2.4-10.7,2.4h-77.58c-4.49,0-8.07-.84-10.84-2.4-2.77-1.61-4.94-3.56-6.53-5.87-1.59-2.29-2.68-4.83-3.27-7.62-.54-2.72-.9-5.25-.9-7.59s.36-4.81.9-7.6c.59-2.74,1.68-5.25,3.27-7.57,1.59-2.31,3.76-4.24,6.53-5.83,2.76-1.61,6.35-2.42,10.84-2.42h77.58c4.36,0,7.89.82,10.7,2.42,2.86,1.59,5.08,3.52,6.71,5.83,1.54,2.31,2.63,4.83,3.22,7.57.59,2.79.86,5.29.86,7.6s-.28,4.87-.86,7.59Z"></path><path class="cls-1" d="m698.74,41.87h-110.01c-5.44,0-10.43,1.29-14.78,3.83-4.35,2.56-8.07,5.85-11.15,9.91-3.04,4.03-5.35,8.5-6.94,13.42-1.59,4.94-2.4,9.82-2.4,14.69v32.72c0,2.56.91,4.76,2.67,6.55,1.77,1.77,3.94,2.68,6.48,2.68s4.76-.91,6.53-2.68c1.82-1.79,2.72-3.99,2.72-6.55v-34.03c.14-2.33.46-4.74,1.09-7.32.54-2.54,1.63-4.98,3.13-7.23,1.54-2.25,3.67-4.01,6.35-5.42,2.63-1.45,6.12-2.13,10.39-2.13h105.92c2.54,0,4.76-.89,6.53-2.68,1.77-1.81,2.67-3.99,2.67-6.53s-.9-4.72-2.67-6.58c-1.77-1.74-3.99-2.65-6.53-2.65Z"></path><path class="cls-1" d="m694.3,74.52h-99.4c-2.54,0-4.76.89-6.53,2.69-1.82,1.79-2.72,3.97-2.72,6.51s.9,4.74,2.72,6.55c1.77,1.79,3.99,2.72,6.53,2.72h99.4c2.58,0,4.8-.93,6.53-2.72,1.81-1.81,2.76-3.97,2.76-6.55s-.95-4.72-2.76-6.51c-1.72-1.81-3.95-2.69-6.53-2.69Z"></path><path class="cls-1" d="m196.69,40.85c-2.31,0-4.62.97-6.93,2.85-8.75,7.71-16.14,13.78-21.99,18.12-5.9,4.33-11.16,7.62-15.78,9.77-4.62,2.17-8.98,3.5-13.06,3.94-4.03.5-8.71.73-13.97.73s-10.02-.27-14.24-.82c-4.17-.52-8.66-1.88-13.33-4.08-4.67-2.15-9.97-5.42-15.82-9.75-5.94-4.35-13.19-10.34-21.9-17.91-1.04-.82-2.13-1.49-3.22-2.04-1.13-.54-2.31-.82-3.67-.82-2.72,0-4.99.97-6.89,2.85-1.91,1.88-2.86,4.2-2.86,6.89,0,1.5.41,2.95,1.13,4.31.73,1.34,1.63,2.5,2.72,3.45,8.71,7.59,16.32,13.9,22.94,18.86,6.71,4.95,12.88,8.89,18.73,11.88,5.85,2.97,11.65,5.08,17.37,6.21,5.8,1.13,12.11,1.72,19.04,1.72,6.53,0,12.56-.63,18.27-1.83,5.71-1.23,11.52-3.27,17.5-6.19,5.94-2.95,12.25-6.85,19-11.79,6.71-4.96,14.28-11.27,22.85-18.86,1.09-.95,2-2.11,2.77-3.45.73-1.36,1.14-2.81,1.14-4.31,0-2.7-1-5.01-2.9-6.89-1.9-1.88-4.17-2.85-6.89-2.85Z"></path><path class="cls-1" d="m124.96,107.21c-3.54,0-6.49,1.2-8.98,3.6-2.45,2.49-3.67,5.44-3.67,8.98s1.22,6.48,3.67,8.94c2.5,2.45,5.44,3.67,8.98,3.67s6.53-1.22,8.93-3.67c2.49-2.45,3.63-5.4,3.63-8.94s-1.13-6.49-3.63-8.98c-2.4-2.4-5.44-3.6-8.93-3.6Z"></path><path class="cls-1" d="m870.89,57.32c1.67-1.7,2.45-3.79,2.45-6.22,0-2.57-.82-4.72-2.63-6.58-1.82-1.74-4-2.65-6.54-2.65h-132.25c-.61,0-1.21.06-1.78.17-.02,0-.04,0-.07.01-.56.11-1.1.27-1.61.48-.03.01-.06.03-.09.04-.52.22-1.01.48-1.48.79-.02.01-.03.02-.05.03-.49.33-.95.7-1.39,1.13-.33.34-.62.7-.89,1.06-1.21,1.61-1.83,3.43-1.83,5.52h0c0,2.55.91,4.73,2.72,6.54,1.77,1.79,4,2.68,6.49,2.68h62.92c-1.99,3.58-3.48,7.38-4.52,11.44-1.05,4.01-1.55,8.02-1.55,11.97v32.72c0,2.26.71,4.24,2.13,5.9.2.24.42.48.65.7,1.73,1.77,3.95,2.68,6.54,2.68s4.72-.91,6.44-2.68c1.82-1.79,2.72-3.99,2.72-6.55v-32.75c0-2.18.27-4.6.82-7.28.54-2.7,1.45-5.23,2.86-7.52,1.41-2.29,3.31-4.22,5.85-5.85,2.45-1.61,5.63-2.54,9.48-2.79h38.62c2.31-.23,4.36-1.2,5.99-2.99Z"></path><path class="cls-1" d="m858.91,96.68c-8.77,0-14.43,5.65-14.43,14.43s5.66,14.43,14.43,14.43,14.43-5.66,14.43-14.43-5.65-14.43-14.43-14.43Zm0,25.94c-6.79,0-11.22-4.53-11.22-11.51s4.43-11.51,11.22-11.51,11.23,4.43,11.23,11.51-4.43,11.51-11.23,11.51Z"></path><path class="cls-1" d="m865.71,108.28c0-3.77-2.18-5.46-5.67-5.46h-7.55v16.6h3.68v-5.56h2.36l2.83,5.56h4.15l-3.11-5.85c2.07-.66,3.3-2.36,3.3-5.29Zm-5.86,2.26h-3.68v-4.53h3.68c1.32,0,2.18.66,2.18,2.26,0,1.7-.85,2.26-2.18,2.26Z"></path></svg>